<?xml version="1.0" encoding="UTF-8"?>
<!DOCTYPE svg PUBLIC "-//W3C//DTD SVG 1.1//EN" "http://www.w3.org/Graphics/SVG/1.1/DTD/svg11.dtd">
<!-- Creator: CorelDRAW 2019 (64-Bit) -->
<svg xmlns="http://www.w3.org/2000/svg" xml:space="preserve" width="5.17406in" height="2.75024in" version="1.1" style="shape-rendering:geometricPrecision; text-rendering:geometricPrecision; image-rendering:optimizeQuality; fill-rule:evenodd; clip-rule:evenodd"
viewBox="0 0 6388.78 3395.92"
 xmlns:xlink="http://www.w3.org/1999/xlink"
 xmlns:xodm="http://www.corel.com/coreldraw/odm/2003">
 <defs>
  <style type="text/css">
   <![CDATA[
    .fil0 {fill:#593C27;fill-rule:nonzero}
    .fil2 {fill:url(#id0)}
    .fil5 {fill:url(#id1)}
    .fil9 {fill:url(#id2)}
    .fil6 {fill:url(#id3)}
    .fil7 {fill:url(#id4)}
    .fil8 {fill:url(#id5)}
    .fil1 {fill:url(#id6)}
    .fil3 {fill:url(#id7);fill-rule:nonzero}
    .fil4 {fill:url(#id8);fill-rule:nonzero}
   ]]>
  </style>
  <linearGradient id="id0" gradientUnits="userSpaceOnUse" x1="382.29" y1="2146.91" x2="303.72" y2="2646.18">
   <stop offset="0" style="stop-opacity:1; stop-color:#523622"/>
   <stop offset="0.611765" style="stop-opacity:1; stop-color:#987554"/>
   <stop offset="1" style="stop-opacity:1; stop-color:#E5D3B3"/>
  </linearGradient>
  <linearGradient id="id1" gradientUnits="userSpaceOnUse" xlink:href="#id0" x1="347.46" y1="1014.71" x2="336.26" y2="1648.83">
  </linearGradient>
  <linearGradient id="id2" gradientUnits="userSpaceOnUse" xlink:href="#id0" x1="342.94" y1="1708.72" x2="340.78" y2="1844.88">
  </linearGradient>
  <linearGradient id="id3" gradientUnits="userSpaceOnUse" xlink:href="#id0" x1="342.94" y1="818.74" x2="340.78" y2="954.9">
  </linearGradient>
  <linearGradient id="id4" gradientUnits="userSpaceOnUse" xlink:href="#id0" x1="342.94" y1="629.1" x2="340.78" y2="765.26">
  </linearGradient>
  <linearGradient id="id5" gradientUnits="userSpaceOnUse" xlink:href="#id0" x1="342.94" y1="1898.36" x2="340.78" y2="2034.52">
  </linearGradient>
  <linearGradient id="id6" gradientUnits="userSpaceOnUse" xlink:href="#id0" x1="1393.8" y1="31.96" x2="1306.89" y2="2650.67">
  </linearGradient>
  <linearGradient id="id7" gradientUnits="userSpaceOnUse" xlink:href="#id0" x1="5545.07" y1="0.94" x2="5453.27" y2="2659.28">
  </linearGradient>
  <linearGradient id="id8" gradientUnits="userSpaceOnUse" xlink:href="#id0" x1="3618.37" y1="0.79" x2="3546.38" y2="2694.66">
  </linearGradient>
 </defs>
 <g id="Layer_x0020_1">
  <metadata id="CorelCorpID_0Corel-Layer"/>
  <g id="_2118823023200">
   <path class="fil0" d="M1378.57 3387.24l-151.12 0 0.62 -6.19 7.43 0c10.73,0 19.92,-3.71 27.56,-11.15 7.64,-7.43 11.66,-16.52 12.08,-27.25l0 -344.35c-0.41,-10.73 -4.44,-19.82 -12.08,-27.25 -7.64,-7.43 -16.83,-11.15 -27.56,-11.15l-7.43 0 -0.62 -6.19 123.25 0c42.53,0 75.55,9.39 99.09,28.18 23.53,18.78 35.3,43.87 35.3,75.25 0,24.77 -6.61,45.31 -19.81,61.62 -13.21,16.31 -29.32,27.15 -48.31,32.52 32.62,4.95 58.42,18.37 77.42,40.26 18.99,21.88 28.49,49.44 28.49,82.68 0,33.24 -12.7,60.39 -38.09,81.45 -25.4,21.05 -60.8,31.58 -106.21,31.58zm-63.17 -22.92l60.69 0c0.41,0 0.83,0 1.24,0 31.38,0 55.74,-8.46 73.08,-25.39 17.34,-16.93 26.01,-41.08 26.01,-72.46 0,-17.75 -2.99,-33.34 -8.98,-46.76 -5.99,-13.42 -13.52,-24.05 -22.61,-31.9 -23.95,-19.82 -59.87,-29.73 -107.76,-29.73 0,0 -0.21,0 -0.62,0l0 -5.58c54.5,0 87.33,-20.23 98.48,-60.69 2.48,-9.08 3.71,-19.2 3.71,-30.34 0,-28.08 -7.74,-49.76 -23.22,-65.03 -15.48,-15.28 -37.88,-22.92 -67.2,-22.92l-32.82 0 0 390.8z"/>
   <path id="1" class="fil0" d="M1898.9 3381.05c10.73,0 19.92,-3.82 27.56,-11.46 7.64,-7.64 11.66,-16.82 12.08,-27.56l0 -346.83c0,-9.91 -3.92,-18.27 -11.77,-25.08 -7.85,-6.81 -17.14,-10.22 -27.87,-10.22l-7.43 0 -0.62 -6.19 181.46 0c12.8,0 26.74,-1.24 41.81,-3.71 15.07,-2.48 25.7,-4.96 31.9,-7.43l0 78.03 -6.19 0 0 -11.15c0,-9.91 -3.41,-18.38 -10.22,-25.39 -6.82,-7.02 -14.97,-10.74 -24.47,-11.15l-126.34 0 0 191.38 104.66 0c8.26,-0.41 15.28,-3.51 21.06,-9.29 5.78,-5.78 8.67,-13 8.67,-21.68l0 -8.67 6.19 0 0 97.86 -6.19 0 0 -9.29c0,-8.26 -2.79,-15.28 -8.36,-21.06 -5.58,-5.78 -12.49,-8.88 -20.75,-9.29l-105.29 0 0 185.18 88.56 0c30.55,0 53.88,-6.82 69.98,-20.44 16.11,-13.62 29.52,-33.85 40.26,-60.69l6.19 0 -35.92 100.33 -257.02 0 0 -6.19 8.05 0z"/>
   <path id="2" class="fil0" d="M2961.16 3381.05l4.96 0 0 6.19 -139.35 0 0 -6.19 5.57 0c8.67,0 15.18,-2.79 19.51,-8.36 4.34,-5.58 6.5,-10.84 6.5,-15.79 0,-4.95 -0.83,-9.91 -2.48,-14.86l-39.63 -105.29 -167.22 0 -41.5 105.9c-1.65,4.95 -2.48,9.81 -2.48,14.55 0,4.75 2.17,9.91 6.5,15.48 4.34,5.58 10.84,8.36 19.51,8.36l5.58 0 0 6.19 -124.49 0 0 -6.19 5.58 0c10.32,0 20.44,-3.3 30.35,-9.91 9.91,-6.61 17.96,-16.31 24.15,-29.11l139.97 -333.2c15.27,-33.45 22.91,-54.71 22.91,-63.79l5.58 0 165.98 396.99c5.78,12.8 13.63,22.5 23.53,29.11 9.91,6.61 20.23,9.91 30.97,9.91zm-304.71 -162.88l152.35 0 -74.32 -198.81 -78.03 198.81z"/>
   <path id="3" class="fil0" d="M3698.89 2959.9l-9.91 0c-8.67,0 -16.21,2.79 -22.61,8.36 -6.4,5.57 -9.81,12.49 -10.22,20.75l0 245.25c0,48.31 -15.27,87.33 -45.83,117.06 -30.55,29.73 -71.22,44.59 -122.01,44.59 -50.79,0 -91.97,-14.76 -123.55,-44.29 -31.59,-29.52 -47.38,-68.43 -47.38,-116.74l0 -244.02c0,-12.39 -5.37,-21.47 -16.11,-27.25 -4.95,-2.47 -10.53,-3.71 -16.72,-3.71l-9.91 0 0 -6.19 125.72 0 0 6.19 -9.91 0c-9.09,0 -16.72,2.79 -22.92,8.36 -6.19,5.57 -9.49,12.7 -9.91,21.37l0 236.59c0,45.01 12.08,81.34 36.23,109 24.15,27.67 56.46,41.5 96.92,41.5 40.46,0 73.28,-13.11 98.47,-39.33 25.19,-26.22 37.78,-60.59 37.78,-103.12l0 -244.64c-0.41,-8.67 -3.72,-15.79 -9.91,-21.37 -6.19,-5.58 -13.83,-8.36 -22.92,-8.36l-9.91 0 0 -6.19 114.58 0 0 6.19z"/>
   <path id="4" class="fil0" d="M4401.31 3008.83c0,-9.91 -3.51,-18.48 -10.53,-25.71 -7.02,-7.22 -15.28,-11.04 -24.77,-11.45l-117.67 0 0 370.98c0.41,10.73 4.44,19.82 12.08,27.25 7.64,7.43 16.82,11.15 27.56,11.15l8.06 0 0 6.19 -135.64 0 0 -6.19 8.05 0c10.73,0 19.92,-3.71 27.56,-11.15 7.64,-7.43 11.66,-16.31 12.08,-26.63l0 -371.6 -117.67 0c-9.91,0.41 -18.27,4.23 -25.08,11.45 -6.81,7.23 -10.22,15.79 -10.22,25.71l0 10.52 -6.19 0.62 0 -78.04c6.19,2.48 16.93,4.96 32.21,7.43 15.27,2.48 29.31,3.72 42.11,3.72l209.33 0c20.23,0 37.06,-1.55 50.47,-4.65 13.42,-3.1 21.57,-5.26 24.47,-6.5l0 78.04 -6.19 -0.62 0 -10.52z"/>
   <path id="5" class="fil0" d="M5161.33 2959.9l-8.67 0c-12.39,0 -24.05,3.41 -34.99,10.22 -10.94,6.81 -20.13,15.38 -27.56,25.7l-122.01 198.19 0 148.02c0,10.73 3.82,19.92 11.46,27.56 7.64,7.64 17.03,11.46 28.18,11.46l7.43 0 0 6.19 -135.01 0 0 -6.19 8.05 0c10.73,0 19.92,-3.71 27.56,-11.15 7.64,-7.43 11.66,-16.52 12.08,-27.25l0 -149.26 -118.29 -197.57c-6.19,-9.91 -14.97,-18.37 -26.32,-25.39 -11.36,-7.02 -23.23,-10.53 -35.61,-10.53l-8.67 0 0 -6.19 152.36 0 0 6.19 -8.05 0c-9.09,0 -16.11,4.13 -21.06,12.39 -2.48,4.54 -3.71,8.98 -3.71,13.32 0,4.34 1.03,8.57 3.1,12.7l92.9 173.41 99.09 -174.03c2.06,-4.13 3.1,-8.25 3.1,-12.39 0,-4.13 -1.45,-8.46 -4.34,-13 -4.95,-8.26 -11.97,-12.39 -21.06,-12.39l-7.43 0 0 -6.19 137.49 0 0 6.19z"/>
   <g>
    <path class="fil1" d="M385.92 539.45c0,-122.89 0,-245.77 0,-368.66 168.14,-4.28 1773.93,2213.89 1978.26,2480.58l38.61 0 0 -2572.88c8.25,-5.1 17.41,-9.72 27.51,-13.85 44.8,-19.1 91.43,-30.85 138.98,-36.73 48.46,-5.87 82.29,-8.81 102.4,-8.81l8.24 0 0 -19.1 0 0 -338.31 0 -345.6 0 0 19.1 8.23 0c18.3,0 52.13,3.68 103.33,10.28 51.21,5.88 98.75,19.1 144.46,39.66 8.73,3.79 16.69,8.01 23.89,12.65l0 2009.09 -1327.76 -1844.78 0.15 0 -154.19 -214.74 -0.52 0 -495.67 0 -297.91 0 0 19.02 7.23 0c47.92,1.41 105.77,9.16 175.38,23.25 44.74,9.64 83.17,21.12 117.46,37.47l0 428.45 85.84 0z"/>
    <path class="fil2" d="M385.92 2603.72l0 -460.53 -85.84 0 0 458.97c-11.3,10.93 -25.64,20.18 -43.02,27.72 -45.72,20.56 -93.25,33.79 -144.46,39.66 -51.2,6.61 -85.03,10.28 -103.32,10.28l-8.23 0 0 19.1 345.6 0 338.3 0 0 0 0 -19.1 -8.24 0c-20.11,0 -53.94,-2.93 -102.39,-8.81 -47.55,-5.88 -94.18,-17.63 -138.98,-36.73 -20.15,-8.26 -36.59,-18.44 -49.42,-30.56z"/>
    <path class="fil3" d="M4609.56 1296.63l377.21 0c1014.4,0 70.08,1363.59 1030.88,1363.59 173.2,0 305.15,-21.14 371.13,-52.86l-8.26 -21.14c-57.71,21.14 -131.93,42.28 -218.55,42.28 -494.82,0 280.41,-1271.97 -985.52,-1338.91 556.67,-31.72 861.83,-218.47 861.83,-637.76 0,-458.06 -408.25,-651.84 -1030.9,-651.84l-397.82 0 0 21.14 397.82 0c395.88,0 618.52,246.65 618.52,630.7 0,384.06 -222.64,623.66 -618.52,623.66l-397.82 0 0 21.14z"/>
    <path class="fil4" d="M2765.74 21.14l0 1811.08c0,609.54 265.88,863.24 863.24,863.24 545.58,0 770.02,-281.87 770.02,-863.24l0 -1811.08 -0.37 -21.14 -20.3 0 -0.05 21.14 0 1811.08c0,563.73 -231.35,831.53 -680.22,831.53 -497.24,0 -604.29,-401.68 -604.29,-866.78l0 -1775.83 -0.61 -21.14 -326.15 0 -1.27 21.14z"/>
    <path class="fil5" d="M51.09 1335.29c0.12,12.61 1,25.31 2.74,38.04 43.96,323.31 461.36,355.32 578.8,131.65 -35.93,27.14 -56.25,55.24 -98.2,70.99 -129.06,48.47 -259.32,15.03 -336.72,-102.65 -23.04,-35.02 -39.48,-91.69 -40.66,-145.09 1.19,-53.41 17.63,-103.02 40.66,-138.04 77.39,-117.68 207.66,-151.13 336.72,-102.65 41.95,15.76 62.27,43.85 98.2,70.98 -117.45,-223.66 -534.86,-191.66 -578.8,131.66 -1.74,12.74 -2.62,32.5 -2.74,45.09z"/>
    <path class="fil6" d="M272.85 886.93c4.25,3.18 40.75,9.03 50.49,18.38 7.99,7.68 13.43,35.46 17.98,48.66l0.92 0.93c0.27,-0.66 -0.03,0.14 0.2,-0.51l3.66 -12.26c1.35,-4.6 2.44,-8.73 3.81,-13.28 2.69,-8.94 5.09,-18.11 10.69,-23.61 9.55,-9.37 45.5,-14.87 50.27,-18.32 -1.56,-0.86 -23.07,-6.84 -26.49,-7.78 -9.14,-2.52 -18.12,-5.1 -23.88,-10.42 -8.96,-8.25 -15.33,-44.45 -18.48,-50l-8.06 26.35c-2.88,9.41 -4.89,17.72 -10.74,23.67 -5.1,5.18 -15.38,8.09 -23.89,10.43 -3.54,0.97 -24.87,6.89 -26.47,7.75z"/>
    <path class="fil7" d="M272.85 697.3c4.25,3.18 40.75,9.03 50.49,18.38 7.99,7.68 13.43,35.46 17.98,48.65l0.92 0.94c0.27,-0.66 -0.03,0.14 0.2,-0.51l3.66 -12.26c1.35,-4.6 2.44,-8.73 3.81,-13.28 2.69,-8.94 5.09,-18.11 10.69,-23.61 9.55,-9.37 45.5,-14.87 50.27,-18.31 -1.56,-0.86 -23.07,-6.84 -26.49,-7.79 -9.14,-2.52 -18.12,-5.1 -23.88,-10.41 -8.96,-8.26 -15.33,-44.46 -18.48,-50l-8.06 26.35c-2.88,9.41 -4.89,17.72 -10.74,23.67 -5.1,5.18 -15.38,8.09 -23.89,10.43 -3.54,0.97 -24.87,6.89 -26.47,7.75z"/>
    <path class="fil8" d="M272.85 1966.55c4.25,3.18 40.75,9.03 50.49,18.38 7.99,7.68 13.43,35.46 17.98,48.66l0.92 0.93c0.27,-0.66 -0.03,0.15 0.2,-0.51l3.66 -12.26c1.35,-4.6 2.44,-8.73 3.81,-13.28 2.69,-8.94 5.09,-18.11 10.69,-23.61 9.55,-9.37 45.5,-14.87 50.27,-18.32 -1.56,-0.86 -23.07,-6.84 -26.49,-7.78 -9.14,-2.52 -18.12,-5.1 -23.88,-10.41 -8.96,-8.26 -15.33,-44.46 -18.48,-50.01l-8.06 26.35c-2.88,9.41 -4.89,17.72 -10.74,23.67 -5.1,5.18 -15.38,8.09 -23.89,10.43 -3.54,0.97 -24.87,6.89 -26.47,7.75z"/>
    <path class="fil9" d="M272.85 1776.91c4.25,3.18 40.75,9.03 50.49,18.38 7.99,7.68 13.43,35.46 17.98,48.65l0.92 0.94c0.27,-0.66 -0.03,0.14 0.2,-0.51l3.66 -12.26c1.35,-4.6 2.44,-8.73 3.81,-13.28 2.69,-8.94 5.09,-18.11 10.69,-23.61 9.55,-9.37 45.5,-14.87 50.27,-18.31 -1.56,-0.86 -23.07,-6.84 -26.49,-7.79 -9.14,-2.52 -18.12,-5.1 -23.88,-10.41 -8.96,-8.26 -15.33,-44.45 -18.48,-50l-8.06 26.35c-2.88,9.41 -4.89,17.72 -10.74,23.67 -5.1,5.18 -15.38,8.09 -23.89,10.43 -3.54,0.97 -24.87,6.89 -26.47,7.75z"/>
   </g>
  </g>
 </g>
</svg>
